<?xml version="1.0" encoding="UTF-8" standalone="no"?>
<!DOCTYPE svg PUBLIC "-//W3C//DTD SVG 1.1//EN" "http://www.w3.org/Graphics/SVG/1.1/DTD/svg11.dtd">
<svg width="100%" height="100%" viewBox="0 0 320 568" version="1.1" xmlns="http://www.w3.org/2000/svg" xmlns:xlink="http://www.w3.org/1999/xlink" xml:space="preserve" xmlns:serif="http://www.serif.com/" style="fill-rule:evenodd;clip-rule:evenodd;stroke-linejoin:round;stroke-miterlimit:2;">
    <g transform="matrix(0.904352,0,0,0.938667,321.939,432.883)">
        <path d="M0,53.046C0,53.046 60.335,21.49 -2.954,-16.287C-66.242,-54.065 -79.321,12.601 -79.321,12.601C-79.321,12.601 -89.448,-49.176 -141.766,-18.51C-182.139,5.155 -174.022,34.505 -168.21,46.676C-174.399,37.742 -189.948,23.293 -218.978,41.935C-258.428,67.268 -213.559,107.111 -213.559,107.111L24.678,107.111C55.052,56.509 0,53.046 0,53.046" style="fill:rgb(240,240,240);fill-rule:nonzero;"/>
    </g>
    <g transform="matrix(0,-0.938667,-0.904352,0,100.081,370.433)">
        <path d="M-193.889,-193.889C-200.142,-193.889 -205.213,-107.082 -205.213,-0C-205.213,107.081 -200.142,193.889 -193.889,193.889C-187.635,193.889 -182.565,107.081 -182.565,-0C-182.565,-107.082 -187.635,-193.889 -193.889,-193.889" style="fill:rgb(245,245,245);fill-rule:nonzero;"/>
    </g>
    <g transform="matrix(0.904352,0,0,0.938667,129.122,550.031)">
        <path d="M0,-77.416C-0.038,-77.416 -0.076,-77.412 -0.114,-77.411L-0.114,-77.416L-30.8,-77.416C-44.009,-77.416 -54.716,-60.085 -54.716,-38.708C-54.716,-17.33 -44.009,0 -30.8,0L-0.114,0L-0.114,-0.004C-0.076,-0.004 -0.038,0 0,0C13.208,0 23.917,-17.33 23.917,-38.708C23.917,-60.085 13.208,-77.416 0,-77.416" style="fill:rgb(0,124,255);fill-rule:nonzero;"/>
    </g>
    <g transform="matrix(0.904352,0,0,0.938667,-114.133,161.623)">
        <g opacity="0.2">
            <g transform="matrix(1,0,0,1,268.982,413.787)">
                <path d="M0,-77.416C-0.038,-77.416 -0.076,-77.412 -0.114,-77.411L-0.114,-77.416L-30.8,-77.416C-44.009,-77.416 -54.716,-60.085 -54.716,-38.708C-54.716,-17.33 -44.009,0 -30.8,0L-0.114,0L-0.114,-0.004C-0.076,-0.004 -0.038,0 0,0C13.208,0 23.917,-17.33 23.917,-38.708C23.917,-60.085 13.208,-77.416 0,-77.416" style="fill-rule:nonzero;"/>
            </g>
        </g>
    </g>
    <g transform="matrix(0.904352,0,0,0.938667,3.38181,550.031)">
        <path d="M0,-77.416C-0.039,-77.416 -0.076,-77.412 -0.114,-77.411L-0.114,-77.416L-30.8,-77.416C-44.008,-77.416 -54.716,-60.085 -54.716,-38.708C-54.716,-17.33 -44.008,0 -30.8,0L-0.114,0L-0.114,-0.004C-0.076,-0.004 -0.039,0 0,0C13.208,0 23.917,-17.33 23.917,-38.708C23.917,-60.085 13.208,-77.416 0,-77.416" style="fill:rgb(0,124,255);fill-rule:nonzero;"/>
    </g>
    <g transform="matrix(0.904352,0,0,0.938667,-114.133,161.623)">
        <g opacity="0.2">
            <g transform="matrix(1,0,0,1,129.943,413.787)">
                <path d="M0,-77.416C-0.039,-77.416 -0.076,-77.412 -0.114,-77.411L-0.114,-77.416L-30.8,-77.416C-44.008,-77.416 -54.716,-60.085 -54.716,-38.708C-54.716,-17.33 -44.008,0 -30.8,0L-0.114,0L-0.114,-0.004C-0.076,-0.004 -0.039,0 0,0C13.208,0 23.917,-17.33 23.917,-38.708C23.917,-60.085 13.208,-77.416 0,-77.416" style="fill-rule:nonzero;"/>
            </g>
        </g>
    </g>
    <g transform="matrix(0.685931,0.611728,0.589365,-0.711958,277.698,448.931)">
        <path d="M-6.512,-6.782L2.741,-6.782C7.12,-6.783 11.132,-9.228 13.139,-13.118L16.317,-19.276L-6.512,-6.782Z" style="fill:rgb(0,124,255);fill-rule:nonzero;"/>
    </g>
    <g transform="matrix(0.904352,0,0,0.938667,280.746,486.951)">
        <path d="M0,-0.316C-1.217,-13.521 -4.672,-26.423 -10.219,-38.468L-12.609,-43.658L-70.931,-43.658L-40.706,43.342C-30.073,40.693 -20.22,35.561 -11.953,28.369L-11.257,27.763C-3.209,20.757 0.979,10.309 0,-0.316" style="fill:rgb(0,124,255);fill-rule:nonzero;"/>
    </g>
    <g transform="matrix(0.904352,0,0,0.938667,-114.133,161.623)">
        <g opacity="0.5">
            <g transform="matrix(1,0,0,1,436.643,346.585)">
                <path d="M0,-0.316C-1.217,-13.521 -4.672,-26.423 -10.219,-38.468L-12.609,-43.658L-70.931,-43.658L-40.706,43.342C-30.073,40.693 -20.22,35.561 -11.953,28.369L-11.257,27.763C-3.209,20.757 0.979,10.309 0,-0.316" style="fill:white;fill-rule:nonzero;"/>
            </g>
        </g>
    </g>
    <g transform="matrix(0.904352,0,0,0.938667,210.747,477.363)">
        <path d="M0,77.417C-13.209,77.417 -23.917,60.086 -23.917,38.709C-23.917,17.331 -13.209,0 0,0L30.686,0L30.686,77.417L0,77.417Z" style="fill:rgb(0,124,255);fill-rule:nonzero;"/>
    </g>
    <g transform="matrix(0,-0.938667,-0.904352,0,238.601,491.248)">
        <path d="M-23.917,-23.917C-2.538,-23.917 14.792,-13.209 14.792,0.001C14.792,13.209 -2.538,23.917 -23.917,23.917C-45.295,23.917 -62.625,13.209 -62.625,0.001C-62.625,-13.209 -45.295,-23.917 -23.917,-23.917" style="fill:rgb(0,124,255);fill-rule:nonzero;"/>
    </g>
    <g transform="matrix(0.904352,0,0,0.938667,-114.133,161.623)">
        <g opacity="0.2">
            <g transform="matrix(0,-1,-1,0,390.04,358.3)">
                <path d="M-16.779,-16.78C-3.26,-16.78 7.699,-9.268 7.699,-0.001C7.699,9.267 -3.26,16.779 -16.779,16.779C-30.298,16.779 -41.258,9.267 -41.258,-0.001C-41.258,-9.268 -30.298,-16.78 -16.779,-16.78" style="fill-rule:nonzero;"/>
            </g>
        </g>
    </g>
    <g transform="matrix(0.904352,0,0,0.938667,52.8442,397.8)">
        <path d="M0,138.318L-57.515,46.011C-57.525,46.019 -12.011,0 87.397,0C173.449,0 224.989,28.419 239.397,51.318L205.289,84.762C172.261,84.762 172.468,119.78 167.939,134.506C167.237,136.79 165.157,138.318 162.732,138.318L0,138.318" style="fill:rgb(0,124,255);fill-rule:nonzero;"/>
    </g>
    <g transform="matrix(0.904352,0,0,0.938667,-114.133,161.623)">
        <g opacity="0.5">
            <g transform="matrix(1,0,0,1,184.637,251.609)">
                <path d="M0,138.318L-57.515,46.011C-57.525,46.019 -12.011,0 87.397,0C173.449,0 224.989,28.419 239.397,51.318L205.289,84.762C172.261,84.762 172.468,119.78 167.939,134.506C167.237,136.79 165.157,138.318 162.732,138.318L0,138.318" style="fill:white;fill-rule:nonzero;"/>
            </g>
        </g>
    </g>
    <g transform="matrix(0.904352,0,0,0.938667,85.007,477.363)">
        <path d="M0,77.417C-13.209,77.417 -23.917,60.086 -23.917,38.709C-23.917,17.331 -13.209,0 0,0L30.686,0L30.686,77.417L0,77.417Z" style="fill:rgb(0,124,255);fill-rule:nonzero;"/>
    </g>
    <g transform="matrix(0,-0.938667,-0.904352,0,112.861,491.248)">
        <path d="M-23.917,-23.917C-2.538,-23.917 14.792,-13.209 14.792,0.001C14.792,13.209 -2.538,23.917 -23.917,23.917C-45.295,23.917 -62.625,13.209 -62.625,0.001C-62.625,-13.209 -45.295,-23.917 -23.917,-23.917" style="fill:rgb(0,124,255);fill-rule:nonzero;"/>
    </g>
    <g transform="matrix(0.904352,0,0,0.938667,-114.133,161.623)">
        <g opacity="0.2">
            <g transform="matrix(0,-1,-1,0,251.001,358.3)">
                <path d="M-16.779,-16.78C-3.26,-16.78 7.699,-9.268 7.699,-0C7.699,9.267 -3.26,16.779 -16.779,16.779C-30.298,16.779 -41.258,9.267 -41.258,-0C-41.258,-9.268 -30.298,-16.78 -16.779,-16.78" style="fill-rule:nonzero;"/>
            </g>
        </g>
    </g>
    <g transform="matrix(0.904352,0,0,0.938667,74.7814,448.448)">
        <path d="M0,76.741C2.926,59.449 20.174,30.805 41.993,30.805L63.14,-7.946L-81.772,-7.946C-91.012,-7.946 -134.216,7.662 -149.946,23.392C-160.957,34.403 -162.099,45.48 -163.392,73.683C-163.655,79.442 -158.365,84.389 -152.001,84.392C-98.545,84.416 -33.846,84.599 -10.292,84.671C-5.093,84.687 -0.783,81.371 0,76.741" style="fill:rgb(0,124,255);fill-rule:nonzero;"/>
    </g>
    <g transform="matrix(0.904352,0,0,0.938667,-114.133,161.623)">
        <g opacity="0.5">
            <g transform="matrix(1,0,0,1,208.894,305.566)">
                <path d="M0,76.741C2.926,59.449 20.174,30.805 41.993,30.805L63.14,-7.946L-81.772,-7.946C-91.012,-7.946 -134.216,7.662 -149.946,23.392C-160.957,34.403 -162.099,45.48 -163.392,73.683C-163.655,79.442 -158.365,84.389 -152.001,84.392C-98.545,84.416 -33.846,84.599 -10.292,84.671C-5.093,84.687 -0.783,81.371 0,76.741" style="fill:white;fill-rule:nonzero;"/>
            </g>
        </g>
    </g>
    <g transform="matrix(0.904352,0,0,0.938667,-114.133,161.623)">
        <g opacity="0.3">
            <g transform="matrix(1,0,0,1,272.032,297.621)">
                <path d="M0,-46.007C-98.792,-46.007 -143.872,-0.71 -144.895,-0.011L-144.905,0L-44.948,0C-44.948,0 -1.972,-37.152 26.514,-45.058C18.08,-45.68 9.235,-46.007 0,-46.007" style="fill:rgb(0,124,255);fill-rule:nonzero;"/>
            </g>
        </g>
    </g>
    <g transform="matrix(0.904352,0,0,0.938667,-114.133,161.623)">
        <g opacity="0.7">
            <g transform="matrix(-0.0720556,0.997401,0.997401,0.0720556,176.942,302.14)">
                <path d="M36.98,-25.928C30.811,-12.621 13.277,27.623 16.247,39.161C19.218,50.7 34.69,24.398 36.98,17.664C39.27,10.928 36.005,6.153 41.719,-3.771C47.432,-13.694 44.449,-42.037 36.98,-25.928" style="fill:rgb(0,124,255);fill-rule:nonzero;"/>
            </g>
        </g>
    </g>
    <g transform="matrix(0.904352,0,0,0.938667,-114.133,161.623)">
        <g opacity="0.2">
            <g transform="matrix(1,0,0,1,318.259,297.094)">
                <path d="M0,93.361C-0.103,93.361 -0.206,93.331 -0.297,93.269C-0.537,93.106 -0.6,92.778 -0.436,92.537C-0.231,92.236 20.03,61.727 20.03,0.528C20.03,0.236 20.267,0 20.558,0C20.849,0 21.085,0.236 21.085,0.528C21.085,62.083 0.643,92.827 0.436,93.13C0.334,93.28 0.168,93.361 0,93.361" style="fill:rgb(0,124,255);fill-rule:nonzero;"/>
            </g>
        </g>
    </g>
    <g transform="matrix(0.904352,0,0,0.938667,-114.133,161.623)">
        <g opacity="0.2">
            <g transform="matrix(1,0,0,1,98.7441,335.792)">
                <path d="M0,7.432C-0.04,7.432 -0.079,7.427 -0.118,7.418L-27.646,1.093C-27.929,1.028 -28.106,0.745 -28.041,0.461C-27.977,0.178 -27.695,0 -27.409,0.065L0.03,6.37L45.4,1.204C45.688,1.179 45.951,1.379 45.983,1.669C46.017,1.958 45.809,2.219 45.52,2.252L0.06,7.429C0.04,7.431 0.02,7.432 0,7.432" style="fill:rgb(0,124,255);fill-rule:nonzero;"/>
            </g>
        </g>
    </g>
    <g transform="matrix(0.904352,0,0,0.938667,-114.133,161.623)">
        <g opacity="0.2">
            <g transform="matrix(1,0,0,1,389.927,291.741)">
                <path d="M0,45.157C-0.137,45.157 -0.273,45.104 -0.376,44.999C-0.58,44.791 -0.577,44.457 -0.369,44.253C9.247,34.823 14.369,12.8 14.369,0.528C14.369,0.237 14.605,0 14.896,0C15.188,0 15.424,0.237 15.424,0.528C15.424,12.986 10.192,35.374 0.369,45.006C0.267,45.107 0.133,45.157 0,45.157" style="fill:rgb(0,124,255);fill-rule:nonzero;"/>
            </g>
        </g>
    </g>
    <g transform="matrix(0.904352,0,0,0.938667,168.442,447.236)">
        <path d="M0,3.866L13.705,3.866C14.768,3.866 15.638,2.996 15.638,1.933C15.638,0.87 14.768,0 13.705,0L0,0C-1.063,0 -1.933,0.87 -1.933,1.933C-1.933,2.996 -1.063,3.866 0,3.866" style="fill:rgb(0,124,255);fill-rule:nonzero;"/>
    </g>
    <g transform="matrix(0.904352,0,0,0.938667,222.837,447.236)">
        <path d="M0,3.866L13.705,3.866C14.768,3.866 15.638,2.996 15.638,1.933C15.638,0.87 14.768,0 13.705,0L0,0C-1.063,0 -1.933,0.87 -1.933,1.933C-1.933,2.996 -1.063,3.866 0,3.866" style="fill:rgb(0,124,255);fill-rule:nonzero;"/>
    </g>
    <g transform="matrix(0.904352,0,0,0.938667,-114.133,161.623)">
        <g opacity="0.3">
            <g transform="matrix(1,0,0,1,244.755,257.831)">
                <path d="M0,39.79L139.687,39.79C146.828,39.79 153.848,37.947 160.068,34.438C160.068,34.438 137.464,13.903 91.957,5.05C73.253,1.412 55.523,0 50.076,0.352C37.074,7.204 17.161,21.612 0,39.79" style="fill:rgb(0,124,255);fill-rule:nonzero;"/>
            </g>
        </g>
    </g>
    <g transform="matrix(0.904352,0,0,0.938667,31.4432,513.698)">
        <path d="M0,8.441L-99.313,8.441C-101.702,8.441 -102.971,5.622 -101.388,3.834L-98.823,0.934C-98.296,0.34 -97.541,0 -96.748,0L-2.565,0C-1.772,0 -1.017,0.34 -0.49,0.934L2.075,3.834C3.658,5.622 2.389,8.441 0,8.441" style="fill:rgb(0,124,255);fill-rule:nonzero;"/>
    </g>
    <g transform="matrix(0.904352,0,0,0.938667,267.055,464.602)">
        <path d="M0,14.541L-6.255,15.749L-6.255,-1.208L0,-0.001C0.847,0.163 1.483,1.306 1.483,2.663L1.483,11.877C1.483,13.234 0.847,14.377 0,14.541" style="fill:rgb(0,124,255);fill-rule:nonzero;"/>
    </g>
    <g transform="matrix(0.904352,0,0,0.938667,35.0388,438.18)">
        <rect x="104.544" y="110.542" width="33.123" height="0.25" style="fill:rgb(236,236,236);"/>
    </g>
    <g transform="matrix(0.904352,0,0,0.938667,35.0388,455.378)">
        <rect x="171.14" y="101.381" width="40.748" height="0.25" style="fill:rgb(236,236,236);"/>
    </g>
    <g transform="matrix(0.904352,0,0,0.938667,35.0388,449.496)">
        <rect x="52.459" y="104.514" width="51.084" height="0.25" style="fill:rgb(236,236,236);"/>
    </g>
    <g transform="matrix(0.904352,0,0,0.938667,-14.25,441.336)">
        <rect x="341.526" y="108.861" width="6.332" height="0.25" style="fill:rgb(236,236,236);"/>
    </g>
    <g transform="matrix(0.904352,0,0,0.938667,35.0388,449.262)">
        <rect x="277.213" y="104.639" width="42.232" height="0.25" style="fill:rgb(236,236,236);"/>
    </g>
    <g transform="matrix(0.904352,0,0,0.938667,145.016,310.812)">
        <path d="M0,5.175C-2.721,-0.302 -7.996,-4.201 -13.414,-4.201C-16.812,-4.201 -19.642,-2.667 -21.493,-0.168C-23.24,-1.592 -25.315,-2.446 -27.416,-2.446C-31.112,-2.446 -33.829,0.192 -34.471,3.914C-36.187,3.084 -38.044,2.575 -39.917,2.494C-43.605,2.326 -46.523,3.842 -48.026,6.307C-48.721,5.894 -49.508,5.635 -50.306,5.597C-52.431,5.501 -53.811,7.031 -53.396,9.012C-53.369,9.136 -53.337,9.257 -53.304,9.376L6.54,9.376C6.681,7.435 2.642,5.273 0,5.175" style="fill:rgb(231,231,231);fill-rule:nonzero;"/>
    </g>
    <g transform="matrix(0.904352,0,0,0.938667,351.156,290.439)">
        <path d="M0,5.175C-2.721,-0.302 -7.996,-4.201 -13.414,-4.201C-16.812,-4.201 -19.643,-2.667 -21.493,-0.168C-23.241,-1.593 -25.316,-2.446 -27.416,-2.446C-31.112,-2.446 -33.83,0.192 -34.472,3.914C-36.187,3.084 -38.044,2.575 -39.917,2.494C-43.605,2.326 -46.524,3.842 -48.026,6.307C-48.721,5.894 -49.508,5.635 -50.306,5.597C-52.431,5.501 -53.811,7.031 -53.396,9.011C-53.369,9.136 -53.337,9.257 -53.305,9.376L6.54,9.376C6.681,7.435 2.642,5.273 0,5.175" style="fill:rgb(245,245,245);fill-rule:nonzero;"/>
    </g>
    <g transform="matrix(0.904352,0,0,0.938667,294.733,367.297)">
        <path d="M0,3.31C-0.298,3.277 -0.585,3.26 -0.861,3.26C-3.524,0.025 -6.854,-2.041 -9.985,-2.041C-12.245,-2.041 -14.045,-0.962 -15.227,0.863C-20.08,-5.418 -26.349,-9.5 -32.212,-9.5C-36.943,-9.5 -40.538,-6.845 -42.549,-2.514C-45.289,-4.978 -48.362,-6.455 -51.291,-6.455C-56.436,-6.455 -59.631,-1.892 -59.688,4.546C-59.688,4.546 -59.683,4.555 -59.696,4.546C-62.256,3.111 -64.959,2.223 -67.587,2.082C-72.747,1.792 -76.466,4.414 -78.006,8.686C-79.067,7.964 -80.218,7.517 -81.339,7.458C-84.16,7.301 -85.727,9.657 -85.028,12.81L12.875,12.81C10.865,8.031 5.265,3.85 0,3.31" style="fill:rgb(245,245,245);fill-rule:nonzero;"/>
    </g>
    <g transform="matrix(1.43488,0,0,2.05671,101.894,324.464)">
        <path d="M0,3.31C-0.298,3.277 -0.585,3.26 -0.861,3.26C-3.524,0.025 -6.854,-2.041 -9.985,-2.041C-12.245,-2.041 -14.045,-0.962 -15.227,0.863C-20.08,-5.418 -26.349,-9.5 -32.212,-9.5C-36.943,-9.5 -40.538,-6.845 -42.549,-2.514C-45.289,-4.978 -48.362,-6.455 -51.291,-6.455C-56.436,-6.455 -59.631,-1.892 -59.688,4.546C-59.688,4.546 -59.683,4.555 -59.696,4.546C-62.256,3.111 -64.959,2.223 -67.587,2.082C-72.747,1.792 -76.466,4.414 -78.006,8.686C-79.067,7.964 -80.218,7.517 -81.339,7.458C-84.16,7.301 -85.727,9.657 -85.028,12.81L12.875,12.81C10.865,8.031 5.265,3.85 0,3.31" style="fill:rgb(245,245,245);fill-rule:nonzero;"/>
    </g>
    <g transform="matrix(0.904352,0,0,0.938667,319.576,246.188)">
        <path d="M0,1.655C-0.148,1.638 -0.292,1.63 -0.43,1.63C-1.762,0.012 -3.426,-1.021 -4.992,-1.021C-6.122,-1.021 -7.022,-0.482 -7.613,0.431C-10.04,-2.709 -13.174,-4.75 -16.106,-4.75C-18.471,-4.75 -20.269,-3.423 -21.274,-1.257C-22.644,-2.489 -24.181,-3.228 -25.645,-3.228C-28.217,-3.228 -29.815,-0.946 -29.844,2.273C-29.844,2.273 -29.841,2.277 -29.848,2.273C-31.127,1.555 -32.479,1.112 -33.793,1.041C-36.373,0.896 -38.232,2.207 -39.003,4.343C-39.533,3.982 -40.109,3.758 -40.669,3.729C-42.08,3.65 -42.863,4.828 -42.514,6.405L6.437,6.405C5.433,4.015 2.633,1.925 0,1.655" style="fill:rgb(231,231,231);fill-rule:nonzero;"/>
    </g>
    <g transform="matrix(0.904352,0,0,0.938667,322.719,462.218)">
        <path d="M0,3.866L13.705,3.866C14.768,3.866 15.638,2.996 15.638,1.933C15.638,0.87 14.768,0 13.705,0L0,0C-1.063,0 -1.933,0.87 -1.933,1.933C-1.933,2.996 -1.063,3.866 0,3.866" style="fill:rgb(0,124,255);fill-rule:nonzero;"/>
    </g>
    <g transform="matrix(0.919004,0,0,0.938667,270.928,484.924)">
        <path d="M16.692,86.905C3.739,86.905 10.965,83.742 16.692,83.742C16.692,83.742 -17.603,87.806 -7.003,89.044C4.928,90.437 21.53,88.592 36.913,88.438C66.748,88.14 16.692,86.905 16.692,86.905Z" style="fill:rgb(0,124,255);fill-rule:nonzero;"/>
    </g>
    <g transform="matrix(-0.904352,0,0,0.938667,625.66,255.819)">
        <rect x="332.784" y="81.499" width="42.022" height="252.612" style="fill:rgb(26,46,53);"/>
    </g>
    <g transform="matrix(-0.904352,0,0,0.938667,639.333,15.7807)">
        <rect x="336.376" y="334.111" width="49.957" height="3.111" style="fill:rgb(26,46,53);"/>
    </g>
    <g transform="matrix(0.904352,0,0,0.938667,311.964,359.664)">
        <path d="M0,-6.746L-7.069,-6.746L-0.886,-16.534L-8.653,-16.534L-13.842,-2.703L-7.392,-2.703L-11.324,9.788L0,-6.746Z" style="fill:white;fill-rule:nonzero;"/>
    </g>
    <g transform="matrix(0.904352,0,0,0.938667,-14.25,176.605)">
        <g opacity="0.5">
            <g transform="matrix(0,-1,-1,0,353.795,316.685)">
                <path d="M-8.83,-8.83C-13.707,-8.83 -17.66,-4.877 -17.66,0C-17.66,4.877 -13.707,8.83 -8.83,8.83C-3.954,8.83 0,4.877 0,0C0,-4.877 -3.954,-8.83 -8.83,-8.83" style="fill:rgb(0,124,255);fill-rule:nonzero;"/>
            </g>
        </g>
    </g>
    <g transform="matrix(0.904352,0,0,0.938667,271.608,480.671)">
        <path d="M0,97.515C-0.873,97.515 -1.581,96.807 -1.581,95.933C-1.581,95.06 -0.873,94.352 0,94.352C5.085,94.352 8.599,93.093 10.74,90.504C15.655,84.56 13.207,71.754 10.616,58.197C8.896,49.195 7.116,39.887 7.116,31.239C7.116,11.094 17.979,0 37.703,0C38.576,0 39.284,0.708 39.284,1.581C39.284,2.455 38.576,3.163 37.703,3.163C25.192,3.163 10.278,8.034 10.278,31.239C10.278,39.587 12.029,48.746 13.723,57.603C16.457,71.912 19.041,85.429 13.177,92.519C10.397,95.881 6.087,97.515 0,97.515" style="fill:rgb(0,124,255);fill-rule:nonzero;"/>
    </g>
    <g transform="matrix(0.904352,0,0,0.938667,-14.25,176.605)">
        <g opacity="0.5">
            <g transform="matrix(-1,0,0,1,707.59,55.749)">
                <rect x="338.025" y="190.256" width="31.54" height="63.739" style="fill:rgb(0,124,255);"/>
            </g>
        </g>
    </g>
    <g transform="matrix(0.904352,0,0,0.938667,-14.25,176.605)">
        <g opacity="0.5">
            <g transform="matrix(1,0,0,1,338.025,309.745)">
                <path d="M0,-63.74L0,0L11.298,-54.867L0,-63.74Z" style="fill:rgb(0,124,255);fill-rule:nonzero;"/>
            </g>
        </g>
    </g>
    <g transform="matrix(0.904352,0,0,0.938667,314.551,452.578)">
        <path d="M0,-26.501L0.642,-29.616L-7.963,-29.616L-8.604,-26.501L-11.939,-26.501L-18.038,3.115L-2.689,3.115L3.409,-26.501L0,-26.501Z" style="fill:rgb(0,124,255);fill-rule:nonzero;"/>
    </g>
    <g transform="matrix(0.904352,0,0,0.938667,-14.25,176.605)">
        <g opacity="0.4">
            <g transform="matrix(1,0,0,1,362.783,293.436)">
                <path d="M-2.994,-1.31L-3.143,-0.165C-3.364,0.911 -4.312,1.684 -5.411,1.684L-13.074,1.684C-13.961,1.684 -14.625,0.87 -14.446,0L-14.298,-1.145C-14.077,-2.222 -13.129,-2.994 -12.03,-2.994L-4.367,-2.994C-3.479,-2.994 -2.815,-2.18 -2.994,-1.31" style="fill:white;fill-rule:nonzero;"/>
            </g>
        </g>
    </g>
    <g transform="matrix(0.904352,0,0,0.938667,-14.25,176.605)">
        <g opacity="0.4">
            <g transform="matrix(1,0,0,1,338.025,254.878)">
                <path d="M0,-8.873L31.54,-8.873L31.54,0L11.298,0L0,-8.873Z" style="fill:rgb(26,46,53);fill-rule:nonzero;"/>
            </g>
        </g>
    </g>
    <g transform="matrix(0.904352,0,0,0.938667,267.117,464.578)">
        <path d="M0,14.541L-6.255,15.749L-6.255,-1.208L0,-0.001C0.847,0.163 1.483,1.306 1.483,2.663L1.483,11.877C1.483,13.234 0.847,14.377 0,14.541" style="fill:rgb(0,124,255);fill-rule:nonzero;"/>
    </g>
</svg>
